<svg xmlns="http://www.w3.org/2000/svg" viewBox="0 0 45.67 51.73"><defs><style>.cls-1{fill:#68c5dd;}.cls-2{fill:#eb579a;}.cls-3{fill:#fff;}.cls-4{font-size:14.3px;font-family:Helvetica-Light, Helvetica;font-weight:300;}</style></defs><title>Asset 1</title><g id="Layer_2" data-name="Layer 2"><g id="Layer_1-2" data-name="Layer 1"><path class="cls-1" d="M33.66,11.32c1,0,2,0,2.92,0,1.62,0,2.21.57,2.52,2.16q3.23,16.89,6.48,33.77a3.16,3.16,0,0,1-1.41,3.6,2.67,2.67,0,0,1-1.35.44q-18.45,0-36.92,0a3.11,3.11,0,0,1-2.81-3.46C3.6,45,4.16,42.12,4.71,39.27Q7.17,26.35,9.64,13.46a2.22,2.22,0,0,1,2.43-2.13c1,0,1.94,0,3,0,.1-.61.18-1.19.3-1.77a12.35,12.35,0,0,1,3-6.21,7.88,7.88,0,0,1,12.38.46,13,13,0,0,1,2.78,6.7C33.57,10.75,33.61,11,33.66,11.32Zm-2.29,0a10.92,10.92,0,0,0-2.25-6.07,5.79,5.79,0,0,0-9-.53,10.6,10.6,0,0,0-2.77,6.6Z"/><path class="cls-2" d="M30.61,10.76c1,0,2,0,2.92,0,1.61,0,2.21.57,2.52,2.16q3.23,16.88,6.48,33.76a3.2,3.2,0,0,1-1.42,3.61,2.84,2.84,0,0,1-1.34.44q-18.47,0-36.92,0A3.1,3.1,0,0,1,0,47.29c.5-2.86,1.06-5.72,1.61-8.58q2.48-12.9,4.94-25.8A2.22,2.22,0,0,1,9,10.77c1,0,1.94,0,3,0,.1-.61.18-1.2.29-1.78a12.33,12.33,0,0,1,3-6.2c3.65-3.89,9-3.69,12.38.46A13.05,13.05,0,0,1,30.49,10C30.52,10.2,30.56,10.45,30.61,10.76Zm-2.29,0a10.92,10.92,0,0,0-2.26-6.06,5.77,5.77,0,0,0-9-.54,10.6,10.6,0,0,0-2.77,6.6Z"/><path class="cls-3" d="M32.41,11.74c1,0,2,0,2.92,0,1.62,0,2.22.57,2.52,2.16q3.24,16.89,6.48,33.76a3.18,3.18,0,0,1-1.41,3.61,2.67,2.67,0,0,1-1.35.44q-18.45,0-36.92,0a3.12,3.12,0,0,1-2.81-3.47c.51-2.86,1.07-5.72,1.62-8.58q2.46-12.9,4.93-25.8a2.22,2.22,0,0,1,2.43-2.13c1,0,1.94,0,3,0,.1-.61.18-1.2.3-1.77a12.31,12.31,0,0,1,3-6.21c3.65-3.89,9-3.69,12.38.46a13,13,0,0,1,2.78,6.7C32.32,11.17,32.37,11.42,32.41,11.74Zm-2.29,0a10.84,10.84,0,0,0-2.25-6.06,5.79,5.79,0,0,0-9-.54,10.63,10.63,0,0,0-2.77,6.6Z"/><text class="cls-4" transform="translate(10.08 33.76)">( 1 )</text></g></g></svg>