<?xml version="1.0" encoding="utf-8"?>
<!-- Generator: Adobe Illustrator 24.0.2, SVG Export Plug-In . SVG Version: 6.00 Build 0)  -->
<svg version="1.1" id="Layer_1" xmlns="http://www.w3.org/2000/svg" xmlns:xlink="http://www.w3.org/1999/xlink" x="0px" y="0px"
	 viewBox="0 0 249.45 167.24" style="enable-background:new 0 0 249.45 167.24;" xml:space="preserve">
<style type="text/css">
	.st0{fill:#FFFFFF;}
</style>
<path class="st0" d="M175.65,83.61c-0.02,27.94-22.56,50.43-50.53,50.42c-30.01-0.01-51-25.04-50.63-51.33
	C74.88,55.39,97.34,33.02,125.11,33C153.2,32.98,175.67,55.48,175.65,83.61z M119.45,91c-5.32-5.32-10.07-10.11-14.87-14.86
	c-2.15-2.12-4.32-2.14-6.47-0.1c-1.84,1.74-3.64,3.52-5.4,5.34c-2.18,2.26-2.21,4.43,0,6.66c7.68,7.73,15.39,15.43,23.11,23.12
	c2.16,2.15,4.52,2.17,6.67,0.02c11.68-11.65,23.35-23.31,34.99-35c2.22-2.23,2.15-4.55-0.07-6.85c-1.55-1.6-3.15-3.14-4.74-4.7
	c-2.71-2.65-4.79-2.64-7.49,0.05c-8.05,8.01-16.09,16.03-24.11,24.07C120.48,89.34,120.08,90.12,119.45,91z"/>
</svg>
