<svg xmlns="http://www.w3.org/2000/svg" viewBox="0 0 127.73 29.87"><defs><style>.cls-1{fill:#68c5dd;}.cls-2{fill:#eb579a;}.cls-3{fill:#fff;}</style></defs><title>Asset 2</title><g id="Layer_2" data-name="Layer 2"><g id="Layer_1-2" data-name="Layer 1"><path class="cls-1" d="M112.15,26c-3.66,0-7.33.09-11,0-3-.1-4.54-1.16-4.72-4.08a130.53,130.53,0,0,1,.08-14.4c.1-2.29,1.76-3.57,4.07-3.58q11.47-.06,23,0c2.33,0,3.93,1.36,4,3.63q.3,7.32,0,14.65c-.1,2.56-2,3.74-4.46,3.78C119.47,26.05,115.81,26,112.15,26ZM109,18.71l8-4.12-8-4Z"/><path class="cls-1" d="M21.79,27.5V17.07l3.38-.33.39-3.59L22,12.93c-1-4-.55-4.61,3.66-5V5c-5.16-1.66-7.2.24-8.28,7.88l-3.22.3v3.55l3.46.4c0,3.15.07,6.22-.07,9.28a2.08,2.08,0,0,1-1.47,1.36,72.88,72.88,0,0,1-8.23,0c-3.35-.24-5.08-2.15-5.12-5.55-.07-5.5-.08-11,0-16.48,0-3.56,2-5.57,5.59-5.64,5.49-.09,11-.1,16.47,0,3.54.06,5.5,2.14,5.54,5.7.06,5,0,10,0,15C30.36,26.53,27.75,28.62,21.79,27.5Z"/><path class="cls-1" d="M47.77,13.84c0-1.75-.05-3.5,0-5.24C48,3.48,50.12.73,55.17.28A77.36,77.36,0,0,1,68.35.36c4.37.38,6.7,3,6.89,7.44.19,4.06.18,8.15,0,12.21-.18,4.47-2.64,7.21-7.11,7.5a109.71,109.71,0,0,1-13.69,0c-3.83-.23-6.27-3-6.58-6.91-.17-2.23,0-4.49,0-6.73ZM61.62,3c-2,0-4-.11-6,0-3,.19-4.74,1.67-4.92,4.61a103.1,103.1,0,0,0,0,12.43c.17,3,1.82,4.63,4.77,4.79a115.46,115.46,0,0,0,12.2,0c2.93-.17,4.57-1.88,4.71-4.84a118,118,0,0,0,0-12.19c-.15-3.06-1.92-4.6-5-4.79C65.45,2.89,63.54,3,61.62,3Z"/><path class="cls-1" d="M61.52,21.07a7,7,0,0,1-7.18-7.27,7.2,7.2,0,0,1,14.4.27A7,7,0,0,1,61.52,21.07Zm0-11.51a4.48,4.48,0,0,0-4.32,4.28,4.3,4.3,0,1,0,8.6.06A4.51,4.51,0,0,0,61.56,9.56Z"/><path class="cls-1" d="M68.68,4.09c.93,1.14,1.92,1.85,1.82,2.35-.15.73-1.07,1.31-1.65,2-.58-.57-1.51-1.08-1.61-1.73S67.94,5.34,68.68,4.09Z"/><path class="cls-1" d="M61.56,9.56a4.51,4.51,0,0,1,4.28,4.34,4.3,4.3,0,1,1-8.6-.06A4.48,4.48,0,0,1,61.56,9.56Z"/><path class="cls-2" d="M108.15,28c-3.66,0-7.33.09-11,0-3-.1-4.54-1.16-4.72-4.08a130.53,130.53,0,0,1,.08-14.4c.1-2.29,1.76-3.57,4.07-3.58q11.47-.06,23,0c2.33,0,3.93,1.36,4,3.63q.3,7.32,0,14.65c-.1,2.56-2,3.74-4.46,3.78C115.47,28.05,111.81,28,108.15,28ZM105,20.71l8-4.12-8-4Z"/><path class="cls-2" d="M19.58,28.5V18.07L23,17.74l.4-3.59-3.64-.22c-1-4-.56-4.61,3.76-5V6c-5.3-1.66-7.38.24-8.49,7.88l-3.3.3v3.55l3.55.4c0,3.15.07,6.22-.07,9.28a2.11,2.11,0,0,1-1.51,1.36,76.65,76.65,0,0,1-8.44,0C1.87,28.5.1,26.59.06,23.19q-.12-8.25,0-16.48C.1,3.15,2.11,1.14,5.78,1.07,11.41,1,17,1,22.67,1.08c3.62.06,5.63,2.14,5.67,5.7.06,5,0,10,0,15C28.35,27.53,25.69,29.62,19.58,28.5Z"/><path class="cls-2" d="M44.77,15.84c0-1.75-.05-3.5,0-5.24.18-5.12,2.34-7.87,7.39-8.32a77.36,77.36,0,0,1,13.18.08c4.37.38,6.7,3,6.89,7.44.19,4.06.18,8.15,0,12.21-.18,4.47-2.64,7.21-7.11,7.5a109.71,109.71,0,0,1-13.69,0c-3.83-.23-6.27-3-6.58-6.91-.17-2.23,0-4.49,0-6.73ZM58.62,5c-2,0-4-.11-6,0-3,.19-4.74,1.67-4.92,4.61a103.1,103.1,0,0,0,0,12.43c.17,3,1.82,4.63,4.77,4.79a115.46,115.46,0,0,0,12.2,0c2.93-.17,4.57-1.88,4.71-4.84a118,118,0,0,0,0-12.19c-.15-3.06-1.92-4.6-5-4.79C62.45,4.89,60.54,5,58.62,5Z"/><path class="cls-2" d="M59.52,23.07a7,7,0,0,1-7.18-7.27,7.2,7.2,0,0,1,14.4.27A7,7,0,0,1,59.52,23.07Zm0-11.51a4.48,4.48,0,0,0-4.32,4.28,4.3,4.3,0,1,0,8.6.06A4.51,4.51,0,0,0,59.56,11.56Z"/><path class="cls-2" d="M66.68,6.09c.93,1.14,1.92,1.85,1.82,2.35-.15.73-1.07,1.31-1.65,2-.58-.57-1.51-1.08-1.61-1.73S65.94,7.34,66.68,6.09Z"/><path class="cls-2" d="M57.56,11.56a4.51,4.51,0,0,1,4.28,4.34,4.3,4.3,0,1,1-8.6-.06A4.48,4.48,0,0,1,57.56,11.56Z"/><path class="cls-3" d="M111.15,28c-3.66,0-7.33.09-11,0-3-.1-4.54-1.16-4.72-4.08a130.53,130.53,0,0,1,.08-14.4c.1-2.29,1.76-3.57,4.07-3.58q11.47-.06,23,0c2.33,0,3.93,1.36,4,3.63q.3,7.32,0,14.65c-.1,2.56-2,3.74-4.46,3.78C118.47,28.05,114.81,28,111.15,28ZM108,20.71l8-4.12-8-4Z"/><path class="cls-3" d="M20.79,29.5V19.07l3.38-.33.39-3.59L21,14.93c-1-4-.55-4.61,3.66-5V7c-5.16-1.66-7.2.24-8.28,7.88l-3.22.3v3.55l3.46.4c0,3.15.07,6.22-.07,9.28a2.08,2.08,0,0,1-1.47,1.36,72.88,72.88,0,0,1-8.23,0c-3.35-.24-5.08-2.15-5.12-5.55-.07-5.5-.08-11,0-16.48,0-3.56,2-5.57,5.59-5.64,5.49-.09,11-.1,16.47,0,3.54.06,5.5,2.14,5.54,5.7.06,5,0,10,0,15C29.36,28.53,26.75,30.62,20.79,29.5Z"/><path class="cls-3" d="M46.77,15.84c0-1.75-.05-3.5,0-5.24.18-5.12,2.34-7.87,7.39-8.32a77.36,77.36,0,0,1,13.18.08c4.37.38,6.7,3,6.89,7.44.19,4.06.18,8.15,0,12.21-.18,4.47-2.64,7.21-7.11,7.5a109.71,109.71,0,0,1-13.69,0c-3.83-.23-6.27-3-6.58-6.91-.17-2.23,0-4.49,0-6.73ZM60.62,5c-2,0-4-.11-6,0-3,.19-4.74,1.67-4.92,4.61a103.1,103.1,0,0,0,0,12.43c.17,3,1.82,4.63,4.77,4.79a115.46,115.46,0,0,0,12.2,0c2.93-.17,4.57-1.88,4.71-4.84a118,118,0,0,0,0-12.19c-.15-3.06-1.92-4.6-5-4.79C64.45,4.89,62.54,5,60.62,5Z"/><path class="cls-3" d="M60.52,23.07a7,7,0,0,1-7.18-7.27,7.2,7.2,0,0,1,14.4.27A7,7,0,0,1,60.52,23.07Zm0-11.51a4.48,4.48,0,0,0-4.32,4.28,4.3,4.3,0,1,0,8.6.06A4.51,4.51,0,0,0,60.56,11.56Z"/><path class="cls-3" d="M67.68,6.09c.93,1.14,1.92,1.85,1.82,2.35-.15.73-1.07,1.31-1.65,2-.58-.57-1.51-1.08-1.61-1.73S66.94,7.34,67.68,6.09Z"/><path class="cls-3" d="M60.56,11.56a4.51,4.51,0,0,1,4.28,4.34,4.3,4.3,0,1,1-8.6-.06A4.48,4.48,0,0,1,60.56,11.56Z"/></g></g></svg>